<?xml version="1.0" encoding="UTF-8"?>
<svg width="425px" height="425px" viewBox="0 0 425 425" version="1.1" xmlns="http://www.w3.org/2000/svg" xmlns:xlink="http://www.w3.org/1999/xlink">
    <!-- Generator: Sketch 50.2 (55047) - http://www.bohemiancoding.com/sketch -->
    <title>2</title>
    <desc>Created with Sketch.</desc>
    <defs>
        <linearGradient x1="-34.6690825%" y1="41.6993001%" x2="36.8942899%" y2="47.7291416%" id="linearGradient-1">
            <stop stop-color="#297DE2" offset="0%"></stop>
            <stop stop-color="#5600B9" offset="100%"></stop>
        </linearGradient>
        <linearGradient x1="-10.8238199%" y1="80.5363437%" x2="82.9845387%" y2="-7.18009925%" id="linearGradient-2">
            <stop stop-color="#29ABE2" offset="0%"></stop>
            <stop stop-color="#8BFFD8" offset="100%"></stop>
        </linearGradient>
    </defs>
    <g id="2" stroke="none" stroke-width="1" fill="none" fill-rule="evenodd">
        <g id="Group" transform="translate(0.000000, 4.000000)" fill-rule="nonzero">
            <path d="M416.254136,170.356313 C421.88464,198.368067 421.673496,226.30944 415.620704,254.180431 C409.849438,281.066085 399.0811,305.910681 383.31569,328.71422 C366.424179,348.139456 343.972546,365.523635 315.960791,380.866757 C288.652848,395.928353 261.767194,405.992878 235.303827,411.060331 C210.811136,415.705497 186.03692,414.509015 160.981179,407.470885 C137.192302,400.855044 114.81105,389.594037 93.8374239,373.687865 C73.2860857,357.922456 55.9722872,339.130651 41.8960282,317.31245 C27.3974814,294.931199 17.6848627,271.423848 12.7581721,246.790396 C7.12766846,218.497116 6.4942368,191.118794 10.8578771,164.655428 C15.0807548,138.61435 23.8784167,114.966236 37.2508627,93.7110856 C50.6233087,72.0336476 67.9371073,54.0160369 89.1922584,39.6582533 C111.151222,24.878182 136.136582,14.8136572 164.148338,9.46467906 C191.597043,4.11570086 219.819942,4.96027637 248.817035,11.9984056 C275.984215,18.4734844 301.603007,29.8048724 325.673409,45.9925696 C349.321525,61.757979 369.028287,80.4090214 384.793697,101.945697 C401.122158,124.045422 411.608971,146.848961 416.254136,170.356313 Z M219.045748,151.775651 C200.746611,168.385636 191.808186,196.819678 192.230474,237.077777 C192.511999,265.793345 197.43869,299.013314 207.010546,336.737687 C211.796474,355.740636 216.512021,371.78757 221.157186,384.878491 C224.957776,383.470865 229.814086,380.655613 235.726115,376.432736 C247.550172,367.986981 258.670417,356.655593 269.086848,342.438572 C302.30682,297.394545 322.43587,232.502993 329.473999,147.763918 C278.658704,129.88707 241.849287,131.224314 219.045748,151.775651 Z" id="Shape" fill="url(#linearGradient-1)"></path>
            <path d="M417.63959,167.651878 C423.973907,194.959819 424.114669,219.874797 418.061878,242.39681 C412.149849,264.215011 401.381511,280.261945 385.756863,290.537614 C369.428403,301.376333 350.214309,304.050822 328.114583,298.561081 C296.161475,290.678376 272.654122,272.660766 257.592525,244.508249 C244.923892,221.14166 236.830043,187.569784 233.310978,143.79262 C231.621827,123.241283 227.187806,104.519859 220.008914,87.628349 C212.548496,70.3145511 202.835878,56.4494366 190.871058,46.0330054 C178.061662,35.0535238 163.563115,28.7192075 147.375417,27.0300565 C129.780094,25.2001429 110.988288,28.9303514 91,38.220682 C101.557194,27.8042508 118.096799,19.0065893 140.618813,11.8276975 C165.252266,3.80423018 190.871058,-0.137122172 217.475187,0.00364041166 C248.442957,0.28516558 276.806619,6.33795669 302.566173,18.1620137 C332.689367,31.6752218 357.533964,52.3673217 377.099964,80.2383133 C397.229014,108.672355 410.742223,137.81021 417.63959,167.651878 Z M62.1110107,75.002484 C70.4160036,74.8617215 79.354428,80.7033687 88.9262841,92.5274258 C96.1051762,101.536231 105.53627,116.457065 117.219565,137.289927 C123.835406,149.39551 134.814888,169.243034 150.158011,196.832501 C180.703493,249.899995 210.96745,287.342842 240.949881,309.161043 C283.460183,340.128811 331.319464,346.392746 384.527723,327.952848 C338.498356,380.738817 286.55696,410.298959 228.703536,416.633275 C203.084745,419.448527 177.747478,417.266707 152.691737,410.087815 C128.762097,403.331211 106.591989,392.422111 86.1814136,377.360514 C65.9116007,362.580443 48.808946,344.844358 34.8734496,324.152258 C20.656428,302.897108 10.7326654,280.16395 5.10216182,255.952786 C-0.809866956,230.333995 -1.5840612,204.504061 2.77957909,178.462983 C7.56550715,150.451229 17.9819388,123.424813 34.0288741,97.3837349 C43.4599676,82.462901 52.8206798,75.002484 62.1110107,75.002484 Z" id="Shape" fill="url(#linearGradient-2)"></path>
        </g>
    </g>
</svg>